<?xml version="1.0" encoding="UTF-8" standalone="no"?><svg xmlns="http://www.w3.org/2000/svg" xmlns:xlink="http://www.w3.org/1999/xlink" fill="#000000" height="560" preserveAspectRatio="xMidYMid meet" version="1" viewBox="0.0 0.0 1060.0 560.0" width="1060" zoomAndPan="magnify"><g id="change1_1"><path d="M1060,520c0,22.1-17.9,40-40,40s-40-17.9-40-40c0-14.3,7.5-26.8,18.8-33.9c-2.7-39-10.1-77.4-22.2-114.5 c0,0,0,0,0,0c-15.5-47.9-38.5-92.9-68.3-133.8l0,0c-29.7-40.8-65.4-76.5-106.2-106.2l0,0c-40.9-29.8-85.9-52.7-133.8-68.3h0 C620.6,47.9,570.7,40,520,40s-100.6,7.9-148.4,23.4h0c-47.9,15.5-92.9,38.5-133.8,68.3l0,0c-40.8,29.7-76.5,65.4-106.2,106.2l0,0 c-29.8,40.9-52.7,85.9-68.3,133.8c0,0,0,0,0,0C47.9,419.4,40,469.3,40,520c0,11-9,20-20,20s-20-9-20-20c0-54.9,8.5-109,25.3-160.7 c0,0,0,0,0,0c16.8-51.9,41.7-100.7,74-144.9v0c32.2-44.2,70.9-82.9,115-115h0c44.3-32.2,93.1-57.1,145-74v0C411,8.5,465.1,0,520,0 s109,8.5,160.7,25.3v0c51.9,16.8,100.7,41.7,145,74h0c44.2,32.2,82.9,70.9,115,115v0c32.2,44.3,57.1,93.1,74,144.9c0,0,0,0,0,0 c13.2,40.6,21.2,82.7,24.1,125.4C1051.4,491.4,1060,504.7,1060,520z" fill="#d62828"/></g><g id="change2_1"><path d="M324.5,533.3H290V397l-50.2,27.8v-32.5l40-23.8c9.2-5.2,18.2-7.8,27.8-7.8h17V533.3z M510.5,447c0,54-18.2,89.8-67,89.8 c-49,0-67.2-35.8-67.2-89.8c0-54.5,18.2-89.8,67.2-89.8C492.3,357.3,510.5,392.5,510.5,447z M474,447c0-44-9.5-64-30.5-64 c-21.2,0-30.8,20-30.8,64c0,43.5,9.5,64,30.8,64C464.5,511,474,490.5,474,447z M666.8,447c0,54-18.2,89.8-67,89.8 c-49,0-67.2-35.8-67.2-89.8c0-54.5,18.2-89.8,67.2-89.8C648.5,357.3,666.8,392.5,666.8,447z M630.3,447c0-44-9.5-64-30.5-64 c-21.2,0-30.8,20-30.8,64c0,43.5,9.5,64,30.8,64C620.8,511,630.3,490.5,630.3,447z M764,398.8c0,25.8-14.8,41.2-38.8,41.2 c-23.8,0-38.5-15.5-38.5-41.2s14.8-41,38.5-41C749.3,357.8,764,373,764,398.8z M704.5,533.3l112-172.5h26.8l-112,172.5H704.5z M711,398.8c0,14.8,5,23,14.2,23s14.5-8.2,14.5-23s-5.2-22.8-14.5-22.8S711,384,711,398.8z M859.8,495.5c0,25.8-14.8,41.2-38.8,41.2 c-23.8,0-38.8-15.5-38.8-41.2s15-41,38.8-41C845,454.5,859.8,469.8,859.8,495.5z M806.8,495.5c0,14.8,5,23,14.2,23s14.2-8.2,14.2-23 s-5-22.8-14.2-22.8S806.8,480.8,806.8,495.5z"/></g></svg>