<?xml version="1.0" encoding="UTF-8" standalone="no"?><svg xmlns="http://www.w3.org/2000/svg" xmlns:xlink="http://www.w3.org/1999/xlink" data-name="Layer 1" fill="#000000" height="700" preserveAspectRatio="xMidYMid meet" version="1" viewBox="97.7 1150.0 2804.5 700.0" width="2804.5" zoomAndPan="magnify"><g id="change1_1"><path d="M447.73,1210.75H2613A289.25,289.25,0,0,1,2902.27,1500v0A289.25,289.25,0,0,1,2613,1789.25H447.73a0,0,0,0,1,0,0V1210.75a0,0,0,0,1,0,0Z" fill="#ffadad"/></g><g id="change2_1"><circle cx="447.73" cy="1500" fill="#d62828" r="350"/></g><g id="change3_1"><circle cx="447.73" cy="1500" fill="#28231f" r="290.45"/></g><g id="change4_1"><path d="M599.81,1436.24a4.46,4.46,0,0,0-2.28-3l-145.53-80a9.2,9.2,0,0,0-8.55,0l-145.53,80a4.51,4.51,0,0,0-2.18,5.38v134.58a34.48,34.48,0,0,0,34.48,34.48H565.44a34.48,34.48,0,0,0,34.48-34.48V1436.17Zm-136.73,86.62a32.18,32.18,0,0,1-30.68,0l-127.76-81H590.85Z" fill="#ffffff"/></g></svg>