<?xml version="1.0" encoding="UTF-8" standalone="no"?><svg xmlns="http://www.w3.org/2000/svg" xmlns:xlink="http://www.w3.org/1999/xlink" fill="#000000" height="540" preserveAspectRatio="xMidYMid meet" version="1" viewBox="10.0 10.0 1040.0 540.0" width="1040" zoomAndPan="magnify"><g id="change1_1"><path d="M1030,550c-11,0-20-9-20-20c0-264.7-215.3-480-480-480S50,265.3,50,530c0,11-9,20-20,20s-20-9-20-20 c0-70.2,13.8-138.3,40.9-202.4c26.2-61.9,63.7-117.5,111.4-165.3c47.7-47.8,103.4-85.2,165.3-111.4C391.7,23.8,459.8,10,530,10 c70.2,0,138.3,13.8,202.4,40.9c61.9,26.2,117.5,63.7,165.3,111.4c47.8,47.7,85.2,103.4,111.4,165.3c27.1,64.1,40.9,132.2,40.9,202.4 C1050,541,1041,550,1030,550z" fill="#cccccc"/></g><g id="change2_1"><path d="M276.5,125.5c0,22.1-17.9,40-40,40c-5.4,0-10.5-1.1-15.2-3c-29.9,25.1-56.6,53.7-79.6,85.4 c-29.8,40.9-52.7,85.9-68.3,133.8C57.9,429.4,50,479.3,50,530c0,11-9,20-20,20s-20-9-20-20c0-54.9,8.5-109,25.3-160.7 c16.8-51.9,41.7-100.7,74-145c25.3-34.8,54.7-66.1,87.6-93.6c-0.2-1.7-0.4-3.5-0.4-5.2c0-22.1,17.9-40,40-40 S276.5,103.4,276.5,125.5z" fill="#d62828"/></g><g id="change3_1"><path d="M440.6,493.5c0,32.5-28,53.2-66.8,53.2c-39,0-63.2-18.2-67-54l-0.2-2.5h34.5l0.5,2.5c2.5,17.5,14.5,28.2,32,28.2 c18.2,0,30.5-10.5,30.5-26.2c0-17.2-11.8-26.5-34.2-27h-5.8v-24l5.8-0.2c18.2-0.8,30.2-11,30.2-27.2c0-14-9.2-23.2-24.5-23.2 c-15.5,0-25,11-26.8,27.2l-0.2,2.5h-34.2l0.2-2.5c3-30,24.5-53,64.8-53c37.5,0,57.2,19.8,57.2,45c0,20-11.2,34.2-32,39.8 C427.9,457.3,440.6,471,440.6,493.5z M598.6,457c0,54-18.2,89.8-67,89.8c-49,0-67.2-35.8-67.2-89.8c0-54.5,18.2-89.8,67.2-89.8 C580.4,367.3,598.6,402.5,598.6,457z M562.1,457c0-44-9.5-64-30.5-64c-21.2,0-30.8,20-30.8,64c0,43.5,9.5,64,30.8,64 C552.6,521,562.1,500.5,562.1,457z M695.9,408.8c0,25.8-14.8,41.2-38.8,41.2c-23.8,0-38.5-15.5-38.5-41.2s14.8-41,38.5-41 C681.1,367.8,695.9,383,695.9,408.8z M636.4,543.3l112-172.5h26.8l-112,172.5H636.4z M642.9,408.8c0,14.8,5,23,14.2,23 s14.5-8.2,14.5-23s-5.2-22.8-14.5-22.8S642.9,394,642.9,408.8z M791.6,505.5c0,25.8-14.8,41.2-38.8,41.2 c-23.8,0-38.8-15.5-38.8-41.2s15-41,38.8-41C776.9,464.5,791.6,479.8,791.6,505.5z M738.6,505.5c0,14.8,5,23,14.2,23 s14.2-8.2,14.2-23s-5-22.8-14.2-22.8S738.6,490.8,738.6,505.5z"/></g></svg>