<?xml version="1.0" encoding="UTF-8" standalone="no"?><svg xmlns="http://www.w3.org/2000/svg" xmlns:xlink="http://www.w3.org/1999/xlink" fill="#000000" height="559.6" preserveAspectRatio="xMidYMid meet" version="1" viewBox="10.0 0.2 1040.0 559.6" width="1040" zoomAndPan="magnify"><g id="change1_1"><path d="M1030,559.8c-11,0-20-9-20-20c0-264.7-215.3-480-480-480S50,275.1,50,539.8c0,11-9,20-20,20s-20-9-20-20 c0-70.2,13.8-138.3,40.9-202.4c26.2-61.9,63.7-117.5,111.4-165.3c47.7-47.8,103.4-85.2,165.3-111.4C391.7,33.5,459.8,19.8,530,19.8 s138.3,13.8,202.4,40.9c61.9,26.2,117.5,63.7,165.3,111.4c47.8,47.7,85.2,103.4,111.4,165.3c27.1,64.1,40.9,132.2,40.9,202.4 C1050,550.8,1041,559.8,1030,559.8z" fill="#cccccc"/></g><g id="change2_1"><path d="M570.5,40.2c0,22.1-17.9,40-40,40c-14.5,0-27.2-7.7-34.2-19.3c-39.1,2.7-77.5,10.1-114.6,22.2 c-23.9,7.8-47.2,17.4-69.5,28.8c-22.3,11.4-43.8,24.6-64.3,39.5c-20.4,14.8-39.5,31.2-57.3,48.9c-17.7,17.8-34.1,36.9-48.9,57.3 c-29.8,40.9-52.7,85.9-68.3,133.8v0C57.9,439.1,50,489.1,50,539.8c0,11.1-8.9,20-20,20s-20-8.9-20-20c0-27.4,2.1-54.7,6.4-81.6 c4.2-26.8,10.6-53.3,19-79.2c8.4-25.9,18.9-51.1,31.2-75.3c12.4-24.2,26.6-47.5,42.8-69.6c32.1-44.2,70.8-82.9,115-115 c22.1-16.1,45.4-30.4,69.6-42.8c24.2-12.4,49.4-22.8,75.3-31.2c40.9-13.3,83.2-21.4,126.2-24.2c6.8-12.3,19.9-20.6,35-20.6 C552.6,0.2,570.5,18.2,570.5,40.2z" fill="#d62828"/></g><g id="change3_1"><path d="M441.1,495.8c0,39.5-31.8,60.8-65.5,60.8c-38.5,0-60.5-16-64-50.8l-0.2-2.5h34.5l0.2,2.5c2.5,15.2,11.2,25,27.8,25 c19.2,0,30.5-13.5,30.5-33.8s-11-34-29.8-34c-13.5,0-22.2,5.8-28.2,19.5h-32l12.2-102h107.5v27h-79.2l-6.5,48.2l8.5-11.8 c8-4.8,17-6.8,27-6.8C420.1,437.3,441.1,460.3,441.1,495.8z M598.6,466.8c0,54-18.2,89.8-67,89.8c-49,0-67.2-35.8-67.2-89.8 c0-54.5,18.2-89.8,67.2-89.8C580.4,377,598.6,412.3,598.6,466.8z M562.1,466.8c0-44-9.5-64-30.5-64c-21.2,0-30.8,20-30.8,64 c0,43.5,9.5,64,30.8,64C552.6,530.8,562.1,510.3,562.1,466.8z M695.9,418.5c0,25.8-14.8,41.2-38.8,41.2c-23.8,0-38.5-15.5-38.5-41.2 s14.8-41,38.5-41C681.1,377.5,695.9,392.8,695.9,418.5z M636.4,553l112-172.5h26.8L663.1,553H636.4z M642.9,418.5 c0,14.8,5,23,14.2,23s14.5-8.2,14.5-23s-5.2-22.8-14.5-22.8S642.9,403.8,642.9,418.5z M791.6,515.3c0,25.8-14.8,41.2-38.8,41.2 c-23.8,0-38.8-15.5-38.8-41.2s15-41,38.8-41C776.9,474.3,791.6,489.5,791.6,515.3z M738.6,515.3c0,14.8,5,23,14.2,23 s14.2-8.2,14.2-23s-5-22.8-14.2-22.8S738.6,500.5,738.6,515.3z"/></g></svg>