<?xml version="1.0" encoding="UTF-8" standalone="no"?><svg xmlns="http://www.w3.org/2000/svg" xmlns:xlink="http://www.w3.org/1999/xlink" data-name="Layer 1" fill="#ffadad" height="2006" preserveAspectRatio="xMidYMid meet" version="1" viewBox="-0.0 -1.7 2596.6 2006.0" width="2596.6" zoomAndPan="magnify"><g id="change1_1"><path d="M1534.88,1584.75c-11.92-7.1-23.58-10.38-35-14-20.22-6.49-38.11-15.87-54.42-30.27-45.09-39.81-114.59-38.73-162.69.92-23,18.92-41.88,41.62-59,65.72-6.71,9.46-11,9.33-19.29,2.33-35.09-29.82-55.41-68.29-67.35-111.92-4.79-17.48-7.5-35.4-9.68-53.29-5-41.22-27.48-70.78-60.61-93.37-51.21-34.92-103-69-153.88-104.34-48.23-33.44-95.13-68.7-137.4-109.67-31.26-30.31-57.51-64.21-74.67-104.61a19.71,19.71,0,0,0-4.78-7.2c34.11,156,130.15,265,264.91,345.38-12.09,1.55-46.73-11.27-77-28a393.68,393.68,0,0,1-67-46.75c-21-18.11-39.2-38.75-56.21-60.44,45.38,98.49,125.9,157.33,223.68,197-36-3-70.71-8.51-101.81-28.07-30.17-19-56.26-42.78-83-66,31.36,66.69,67.82,127.86,153.4,139.39-16.94,9.08-32.89,11.59-49.28,11.26-16.61-.33-30.42-9.31-45.31-17.27,16.79,46.4,60.63,76.19,124.35,83.88-22.24,13.41-43.8,18.58-68.16,14.88-.06,5.23,3.71,7.93,6.25,11,36.16,44.42,82.69,75.14,133.42,100.09,7.6,3.74,9.09,5.55,2.84,12.59a1004.8,1004.8,0,0,1-224.59,188.48c-59.59,36.83-117,77.07-174.75,116.65a12.61,12.61,0,0,0-4.49,5.2c17.35-6.63,34.73-13.21,52.06-19.91,99.77-38.62,202.91-58.73,310.12-58.91,62-.11,123.92-3.82,183.95-22.13,85-25.93,146.36-80.36,189-157,15.24-27.35,28.87-55.61,43.21-83.46a308.28,308.28,0,0,1,24-39.7c17.12-23.71,39.87-36.66,69.46-36.82,2.2,0,4.39-.27,6.59-.46A20.92,20.92,0,0,0,1534.88,1584.75Z"/></g><g id="change1_2"><path d="M1401.7,1227.17c33.82-34.07,71.49-63.37,108.18-93.87,83.94-69.79,175.73-129.89,254.29-206.3,52.5-51.07,103.94-103,146.74-162.89,8-11.19,8.49-15.15-6.28-19.17-79.6-21.7-153.47-55.05-215.94-110.42-6.55-5.81-12.74-12-22.06-20.86,22.21.2,39.88-.66,56.85-6.74,16.29-5.83,31.52-13.27,45.47-24.32-4.81-4.72-8.82-2.81-12.32-2.2-49.89,8.66-93.32-6.49-133.09-35.61-38.71-28.35-81.06-77.83-97-115.7,78.66,57.73,157.85,102.79,262.89,71.13-145.87-19.23-259.73-82.37-335.8-205.59,82,82.16,181,125.42,297.71,130C1543.15,349.66,1391.5,219,1326.06,1.5c5.49-3.19,6.28-.54,7.07,1,41.08,82,106.59,139.77,184.35,185.11,101.26,59,211,98,321.5,135.17q28,9.42,55.73,19.56c48.71,17.91,81.28,50.63,94.82,101.74,10.42,39.35,25.18,77,49.36,110.33,20.84,28.69,46.09,52.07,78.35,67.74,11.67,5.66,18.26,5.11,25.45-7.18,19.89-34,41.25-67.18,67.35-96.92,51.51-58.68,115-84.81,193.12-70,21.29,4.05,42,11.59,58.21,25.53,23.05,19.75,50,27,78.53,32,18.12,3.17,36.06,7.42,56.72,11.74-5.89,5.84-11.18,5.14-15.57,5.84-43,6.77-74.17,30.36-96.65,66.8-23.78,38.54-39.68,80.71-56.45,122.44-25.72,64-55.44,125.58-100.22,178.85-71,84.45-163.69,132-269,157.69-75.12,18.36-152.33,23.51-228.48,35.32-126,19.54-245.86,59.15-361.75,111.52C1446.08,1205.92,1424,1216.7,1401.7,1227.17Z"/></g><g id="change1_3"><path d="M1334.45,734.45c-6.8-3.33-13.28-4.6-19.63-6.08a80.76,80.76,0,0,1-30.91-14c-26.27-19.64-64-16-88.38,7.71-11.64,11.29-20.92,24.47-29.13,38.32-3.23,5.45-5.59,5.57-10.38,2.13-20.39-14.65-33.14-34.66-41.56-57.84a202.58,202.58,0,0,1-7.62-28.54c-4.57-22.18-18.07-37.25-37.08-48.06-29.37-16.71-59-33-88.25-49.89-27.69-16-54.74-33.13-79.53-53.52-18.33-15.09-34.1-32.35-45.21-53.55a11,11,0,0,0-2.92-3.7c25.45,83.29,82.47,138.27,159.27,176-6.5,1.38-25.9-4.05-43.07-11.79a215.07,215.07,0,0,1-38.51-22.44c-12.21-8.91-23-19.32-33.23-30.36,29,51.52,75.39,79.93,130.29,97.15-19.71,0-38.8-1.49-56.57-10.74-17.24-9-32.47-20.76-48-32.19,20,34.85,42.52,66.49,89.54,69a52.14,52.14,0,0,1-26.28,8.31c-9,.55-17-3.72-25.39-7.38,11.18,24.47,36.32,38.72,71.3,40.08-11.5,8.27-23,12-36.39,11.1.2,2.84,2.37,4.15,3.88,5.73,21.62,22.54,48.28,37.18,76.95,48.49,4.3,1.7,5.19,2.61,2.1,6.71A547.63,547.63,0,0,1,966,927.37c-30.76,22.66-60.16,47.07-89.81,71.14a6.86,6.86,0,0,0-2.21,3c9.14-4.38,18.29-8.72,27.41-13.13,52.51-25.41,107.68-40.9,165.94-45.75,33.71-2.81,67.18-7.56,99-20.17,45-17.86,76-50.16,95.8-93.68,7.07-15.54,13.22-31.5,19.78-47.27a168.45,168.45,0,0,1,11.31-22.65c8.26-13.64,20-21.69,36.12-23.08,1.19-.11,2.38-.34,3.56-.54A11.44,11.44,0,0,0,1334.45,734.45Z"/></g><g id="change1_4"><path d="M480.59,1546.16c-6.79-3.33-13.27-4.6-19.62-6.08a80.84,80.84,0,0,1-30.91-14c-26.27-19.64-64-16-88.38,7.7-11.64,11.3-20.92,24.48-29.13,38.33-3.23,5.44-5.59,5.56-10.38,2.12-20.39-14.65-33.14-34.66-41.56-57.84a202.44,202.44,0,0,1-7.62-28.53c-4.57-22.19-18.07-37.26-37.08-48.07-29.37-16.7-59-33-88.25-49.89-27.69-16-54.74-33.12-79.53-53.52C29.8,1321.26,14,1304,2.92,1282.8A10.76,10.76,0,0,0,0,1279.1c25.44,83.29,82.47,138.26,159.26,176-6.49,1.38-25.89-4-43.06-11.8a214.51,214.51,0,0,1-38.52-22.43c-12.21-8.92-23-19.33-33.22-30.36,29,51.51,75.39,79.93,130.29,97.15-19.71,0-38.81-1.49-56.58-10.75-17.23-9-32.47-20.75-48-32.19,20,34.86,42.52,66.49,89.54,69a52.25,52.25,0,0,1-26.28,8.3c-9,.56-17-3.71-25.4-7.38,11.18,24.47,36.33,38.72,71.31,40.08-11.5,8.27-23,12-36.39,11.11.2,2.84,2.37,4.14,3.88,5.72,21.62,22.55,48.27,37.18,76.95,48.5,4.3,1.69,5.18,2.61,2.1,6.71a547.87,547.87,0,0,1-113.71,112.38c-30.76,22.66-60.16,47.07-89.81,71.14a6.81,6.81,0,0,0-2.21,3c9.14-4.37,18.29-8.71,27.41-13.13,52.51-25.4,107.68-40.9,165.93-45.74,33.72-2.81,67.19-7.57,99-20.18,45-17.85,76-50.15,95.79-93.68,7.08-15.54,13.23-31.49,19.79-47.27a167.74,167.74,0,0,1,11.31-22.64c8.25-13.64,20-21.69,36.12-23.09,1.19-.1,2.37-.34,3.56-.54A12.32,12.32,0,0,0,480.59,1546.16Z"/></g></svg>