<?xml version="1.0" encoding="UTF-8" standalone="no"?><svg xmlns="http://www.w3.org/2000/svg" xmlns:xlink="http://www.w3.org/1999/xlink" fill="#ff7f7f" height="115.7" preserveAspectRatio="xMidYMid meet" version="1" viewBox="11.7 12.7 115.7 115.7" width="115.7" zoomAndPan="magnify"><g id="change1_1"><path d="M69.508,12.666c-31.939,0-57.834,25.893-57.834,57.834c0,31.939,25.895,57.834,57.834,57.834 c31.941,0,57.834-25.895,57.834-57.834C127.342,38.559,101.449,12.666,69.508,12.666z M89.771,44.209 c-0.524-0.883-0.531-1.867-0.022-2.414l5.942-4.825l0.077-0.069c0.641-0.64,1.453-1.008,2.229-1.008 c0.362,0,0.878,0.084,1.279,0.486l3.85,3.851c0.371,0.37,0.538,0.917,0.473,1.541c-0.074,0.703-0.427,1.401-0.993,1.968l-4.895,6.02 c-0.334,0.313-0.757,0.379-1.057,0.379c-0.438,0-0.921-0.143-1.357-0.402l-0.679-0.404L82.046,62.171l-5.055-4.374l13.183-12.91 L89.771,44.209z M68.1,86.962l-16.852,16.852c-3.515,3.515-9.213,3.515-12.728,0l-2.827-2.827c-3.515-3.515-3.515-9.213,0-12.728 l16.604-16.604c1.132-0.094,2.265-0.241,3.384-0.457l13.041,15.068C68.527,86.505,68.323,86.739,68.1,86.962z M101.858,100.3 c-1.764,1.763-4.593,2.736-7.205,2.736c-1.96,0-3.798-0.548-4.973-1.723L57.783,64.457c-2.421,0.814-5.204,1.309-7.987,1.309 c-4.274,0-8.547-1.166-11.508-4.128c-4.932-4.93-7.216-11.168-5.078-17.342l9.758,8.164l9.915-1.132l0.601-9.384l-8.162-9.756 c1.742-0.604,3.532-0.898,5.314-0.898c4.533,0,9.019,1.901,12.559,5.441c4.891,4.892,4.885,13.355,2.816,19.499l8.777,7.595 l3.052,2.641v0l25.029,21.659C105.609,90.867,104.939,97.219,101.858,100.3z" fill="inherit"/></g></svg>