<?xml version="1.0" encoding="UTF-8" standalone="no"?><svg xmlns="http://www.w3.org/2000/svg" xmlns:xlink="http://www.w3.org/1999/xlink" fill="#ffffff" height="24.5" preserveAspectRatio="xMidYMid meet" version="1" viewBox="1.5 3.7 29.0 24.5" width="29" zoomAndPan="magnify"><g id="change1_1"><path d="m30.459822046455884,17.662109375c-.00775146484375-.01934814453125-.0184326171875-.03582763671875-.028564453125-.0540771484375-.02337646484375-.04327392578125-.05120849609375-.08197021484375-.08709716796875-.11724853515625-.0062255859375-.00604248046875-.0086669921875-.01483154296875-.0152587890625-.02056884765625-.00811767578125-.007080078125-.01947021484375-.0087890625-.02801513671875-.0152587890625-.02227783203125-.01739501953125-.03900146484375-.039794921875-.06475830078125-.0535888671875l-6.111328125-3.27783203125c-.2802734375-.15087890625-.6103515625-.20947265625-.921875-.1669921875l-1.412109375.19232177734375v-6.48870849609375c0-.0196533203125-.0098876953125-.037109375-.01220703125-.05645751953125-.0048828125-.04156494140625-.01116943359375-.08135986328125-.026123046875-.120361328125-.010009765625-.02618408203125-.02410888671875-.048583984375-.038330078125-.07275390625-.01995849609375-.03399658203125-.0416259765625-.06494140625-.069580078125-.09375-.00970458984375-.010009765625-.01409912109375-.02386474609375-.024658203125-.03314208984375-.0133056640625-.0115966796875-.03125-.01495361328125-.045654296875-.02496337890625-.01690673828125-.011962890625-.02838134765625-.0289306640625-.047119140625-.03900146484375l-6.1083984375-3.28466796875c-.2802734375-.1513671875-.6103515625-.20947265625-.9208984375-.16796875l-9.2236328125,1.2451171875c-.069091796875.00933837890625-.13275146484375.03253173828125-.18902587890625.0660400390625-.00042724609375.000244140625-.0009765625.0001220703125-.00140380859375.0003662109375-.00262451171875.0015869140625-.00360107421875.0047607421875-.00616455078125.00634765625-.0634765625.03961181640625-.1129150390625.09442138671875-.1527099609375.1566162109375-.0125732421875.0196533203125-.02020263671875.03955078125-.02996826171875.060791015625-.02325439453125.05029296875-.03680419921875.1026611328125-.04217529296875.15948486328125-.0015869140625.01611328125-.01214599609375.02960205078125-.01214599609375.04595947265625v8.001953125c0,.48760986328125.2418212890625.92816162109375.6268310546875,1.210693359375l-3.5340576171875.475830078125c-.156005859375.0208740234375-.27911376953125.11541748046875-.35479736328125.24041748046875-.00677490234375.0111083984375-.0108642578125.022216796875-.0167236328125.0338134765625-.0302734375.05975341796875-.04693603515625.123779296875-.051025390625.19317626953125-.000732421875.01080322265625-.00811767578125.01971435546875-.00811767578125.0306396484375v8.00244140625c0,.55859375.3056640625,1.0703125.7978515625,1.33544921875l5.865234375,3.1533203125c.00775146484375.00421142578125.01715087890625.0025634765625.02508544921875.00634765625.06658935546875.031494140625.1370849609375.05322265625.21124267578125.05322265625.0224609375,0,.044921875-.00146484375.06640625-.00439453125l8.6708984375-1.169921875c.21575927734375-.02911376953125.4085693359375-.1129150390625.58465576171875-.2220458984375l2.48663330078125,1.3377685546875c.01031494140625.0054931640625.0223388671875.0035400390625.03289794921875.00823974609375.05865478515625.0269775390625.12060546875.04376220703125.18536376953125.04656982421875.00653076171875.000244140625.01251220703125.0047607421875.01904296875.0047607421875.00140380859375,0,.00262451171875-.0010986328125.0040283203125-.0010986328125.021728515625-.0001220703125.04351806640625-.00146484375.0643310546875-.0042724609375l8.669921875-1.169921875c.7490234375-.10107421875,1.3134765625-.74658203125,1.3134765625-1.50244140625v-7.7216796875c0-.0189208984375-.00970458984375-.03564453125-.01177978515625-.05426025390625-.004638671875-.045166015625-.01171875-.08819580078125-.0281982421875-.13031005859375Zm-7.12115478515625-2.71484375c.1005859375-.013671875.2158203125.00537109375.3125.056640625l4.75946044921875,2.552734375-7.86871337890625,1.0621337890625-2.59326171875-1.3931884765625,2.5296630859375-.34130859375c.748046875-.1015625,1.3125-.74755859375,1.3125-1.5029296875v-.2230224609375l1.5478515625-.2110595703125Zm-14.84295654296875,3.6712646484375l-4.9012451171875-2.6357421875,3.3309326171875-.44610595703125,4.57928466796875,2.46234130859375c.00775146484375.00421142578125.01715087890625.0025634765625.02508544921875.00634765625.06658935546875.031494140625.1370849609375.05322265625.21124267578125.05322265625.0224609375,0,.044921875-.00146484375.06640625-.00439453125l4.3782958984375-.59075927734375.17510986328125.09356689453125-7.8651123046875,1.0615234375Zm-2.65509033203125-12.2742919921875l5.400390625,2.9033203125v7.474609375l-5.12890625-2.75830078125c-.16796875-.08935546875-.271484375-.263671875-.271484375-.4541015625v-7.16552734375Zm6.400390625,10.642578125v-7.60107421875l8.5498046875-1.15380859375v7.1494140625c0,.25732421875-.1923828125.47705078125-.4462890625.51171875l-8.103515625,1.09375Zm2.3896484375-12.228515625c.1025390625-.01416015625.2177734375.0048828125.314453125.05712890625l4.75189208984375,2.55523681640625-7.8624267578125,1.06085205078125-4.90008544921875-2.63427734375,7.6961669921875-1.0389404296875ZM2.502729761299634,23.69677734375v-7.166015625l5.3994140625,2.90380859375v7.47412109375l-5.1279296875-2.75732421875c-.16796875-.08984375-.271484375-.26416015625-.271484375-.45458984375Zm14.9501953125,1.87158203125c0,.25732421875-.1923828125.47705078125-.4462890625.51123046875l-8.1044921875,1.09375v-7.6005859375l8.55078125-1.154296875v7.14990234375Zm2.4951171875,1.3408203125l-1.58544921875-.8531494140625c.05328369140625-.154541015625.09033203125-.31683349609375.09033203125-.4876708984375v-6.93707275390625l1.4951171875.80328369140625v7.474609375Zm9.5517578125-1.3408203125c0,.25732421875-.1923828125.47705078125-.4462890625.51123046875l-8.103515625,1.09375v-7.6005859375l8.5498046875-1.15380859375v7.1494140625Z"/></g></svg>